# xmcd
#
# Track frame offsets: 
#        182
#        15492
#        29110
#        46510
#        65120
#        87910
#        104870
#        121745
#        137607
#        152177
#
# Disc length: 2263 seconds
#
# Revision: 2
# Processed by: cddbd v1.4PL0 Copyright (c) Steve Scherf et al.
# Submitted via: ExactAudioCopy v0.90b2
#
DISCID=8408d50a
DTITLE=David Lynn Jones - Hard Times On Easy Street
DYEAR=1900
DGENRE=Country
TTITLE0=Bonnie Jean (Little Sister)
TTITLE1=High Ridin' Heroes
TTITLE2=Home Of My Heart
TTITLE3=The Rogue
TTITLE4=No Easy Way Out
TTITLE5=Living In The Promiseland
TTITLE6=Tonight In America
TTITLE7=Valley Of A Thousand Years
TTITLE8=Hard Times On Easy Street
TTITLE9=See How Far We've Come
EXTD=
EXTT0=
EXTT1=
EXTT2=
EXTT3=
EXTT4=
EXTT5=
EXTT6=
EXTT7=
EXTT8=
EXTT9=
PLAYORDER=
